<?xml version="1.0" standalone="no"?>
<!DOCTYPE svg PUBLIC "-//W3C//DTD SVG 20010904//EN"
 "http://www.w3.org/TR/2001/REC-SVG-20010904/DTD/svg10.dtd">
<svg version="1.0" xmlns="http://www.w3.org/2000/svg"
 width="215.000000pt" height="67.000000pt" viewBox="0 0 215.000000 67.000000"
 preserveAspectRatio="xMidYMid meet">

<g transform="translate(0.000000,67.000000) scale(0.100000,-0.100000)"
fill="#000000" stroke="none">
<path d="M26 647 c-14 -14 -26 -31 -26 -36 0 -43 73 -350 88 -371 27 -36 110
-61 222 -67 84 -5 98 -8 122 -31 l27 -25 -31 -16 c-48 -24 -55 -43 -28 -74 30
-34 60 -34 90 0 19 22 21 29 10 46 -10 17 -7 24 27 58 l38 37 388 7 388 8 29
-28 c25 -24 27 -30 17 -53 -9 -20 -9 -26 1 -30 6 -2 12 -9 12 -16 0 -23 45
-56 76 -56 31 0 74 34 74 58 0 7 5 12 10 12 21 0 9 33 -25 67 -19 19 -35 37
-35 39 0 2 46 4 103 4 195 0 351 29 406 76 l31 26 1 -104 c0 -110 15 -173 39
-173 12 0 15 24 18 142 2 138 3 141 27 157 32 21 32 41 0 62 -24 16 -25 19
-27 157 -3 118 -6 142 -18 142 -24 0 -39 -63 -39 -172 l-1 -102 -35 20 c-45
27 -168 48 -280 49 l-91 0 -49 50 c-90 91 -160 104 -429 75 -212 -22 -241 -29
-519 -121 -230 -77 -260 -84 -278 -72 -12 7 -46 63 -78 123 -62 122 -84 140
-179 152 -45 5 -53 3 -76 -20z m2064 -119 c0 -141 -6 -181 -24 -175 -15 5 -20
215 -6 267 20 74 30 43 30 -92z m-572 28 c15 -8 47 -35 71 -60 37 -38 42 -47
31 -60 -14 -18 -101 -46 -141 -46 -24 0 -28 5 -43 65 -21 83 -21 82 12 99 34
19 37 19 70 2z m-156 -18 c12 -10 48 -124 48 -153 0 -3 -44 -5 -99 -5 -111 0
-113 1 -132 73 -14 58 -9 65 58 83 62 16 105 17 125 2z m722 -240 c10 -38 7
-288 -4 -288 -18 0 -30 75 -30 186 0 61 3 114 7 117 12 12 21 7 27 -15z m-634
-127 c0 -16 -28 -20 -40 -5 -10 12 -8 14 14 14 14 0 26 -4 26 -9z m-953 -18
c-16 -16 -18 -16 -34 0 -16 16 -15 17 17 17 32 0 33 -1 17 -17z"/>
</g>
</svg>
